<svg width="631" height="649" viewBox="0 0 631 649" fill="none" xmlns="http://www.w3.org/2000/svg">
<rect width="631" height="649" fill="#currentColor"/>
<path d="M54.9003 467.979L170.681 393.662" stroke="#A5ADBA" stroke-width="0.426199" stroke-miterlimit="10" stroke-linecap="round" stroke-dasharray="0.43 0.43"/>
<path d="M20.3965 368.078L152.06 342.25" stroke="#A5ADBA" stroke-width="0.426199" stroke-miterlimit="10" stroke-linecap="round" stroke-dasharray="0.43 0.43"/>
<path d="M18.7531 260.988L150.417 286.817" stroke="#A5ADBA" stroke-width="0.426199" stroke-miterlimit="10" stroke-linecap="round" stroke-dasharray="0.43 0.43"/>
<path d="M50.0801 159.747L165.861 234.064" stroke="#A5ADBA" stroke-width="0.426199" stroke-miterlimit="10" stroke-linecap="round" stroke-dasharray="0.43 0.43"/>
<path d="M110.654 76.5361L196.641 190.448" stroke="#A5ADBA" stroke-width="0.426199" stroke-miterlimit="10" stroke-linecap="round" stroke-dasharray="0.43 0.43"/>
<path d="M193.246 21.4678L238.923 161.087" stroke="#A5ADBA" stroke-width="0.426199" stroke-miterlimit="10" stroke-linecap="round" stroke-dasharray="0.43 0.43"/>
<path d="M292.596 1V149.634" stroke="#A5ADBA" stroke-width="0.426199" stroke-miterlimit="10" stroke-linecap="round" stroke-dasharray="0.43 0.43"/>
<path d="M382.746 17.8125L337.069 157.431" stroke="#A5ADBA" stroke-width="0.426199" stroke-miterlimit="10" stroke-linecap="round" stroke-dasharray="0.43 0.43"/>
<path d="M466.98 69.7119L381.102 183.502" stroke="#A5ADBA" stroke-width="0.426199" stroke-miterlimit="10" stroke-linecap="round" stroke-dasharray="0.43 0.43"/>
<path d="M530.073 150.486L414.402 224.803" stroke="#A5ADBA" stroke-width="0.426199" stroke-miterlimit="10" stroke-linecap="round" stroke-dasharray="0.43 0.43"/>
<path d="M564.578 250.511L433.023 276.217" stroke="#A5ADBA" stroke-width="0.426199" stroke-miterlimit="10" stroke-linecap="round" stroke-dasharray="0.43 0.43"/>
<path d="M566.33 357.479L434.667 331.65" stroke="#A5ADBA" stroke-width="0.426199" stroke-miterlimit="10" stroke-linecap="round" stroke-dasharray="0.43 0.43"/>
<path d="M534.894 458.72L419.222 384.403" stroke="#A5ADBA" stroke-width="0.426199" stroke-miterlimit="10" stroke-linecap="round" stroke-dasharray="0.43 0.43"/>
<path d="M474.32 541.932L388.442 428.02" stroke="#A5ADBA" stroke-width="0.426199" stroke-miterlimit="10" stroke-linecap="round" stroke-dasharray="0.43 0.43"/>
<path d="M391.837 597.122L346.16 457.381" stroke="#A5ADBA" stroke-width="0.426199" stroke-miterlimit="10" stroke-linecap="round" stroke-dasharray="0.43 0.43"/>
<path d="M292.596 564.592L292.596 468.832" stroke="#A5ADBA" stroke-width="0.426199" stroke-miterlimit="10" stroke-linecap="round" stroke-dasharray="0.43 0.43"/>
<path d="M202.228 600.775L248.015 461.034" stroke="#A5ADBA" stroke-width="0.426199" stroke-miterlimit="10" stroke-linecap="round" stroke-dasharray="0.43 0.43"/>
<path d="M118.103 548.753L203.981 434.963" stroke="#A5ADBA" stroke-width="0.426199" stroke-miterlimit="10" stroke-linecap="round" stroke-dasharray="0.43 0.43"/>
<path d="M54.9003 467.979L170.681 393.662" stroke="#A5ADBA" stroke-width="0.426199" stroke-miterlimit="10" stroke-linecap="round" stroke-dasharray="0.43 0.43"/>
<path d="M20.3965 368.078L152.06 342.25" stroke="#A5ADBA" stroke-width="0.426199" stroke-miterlimit="10" stroke-linecap="round" stroke-dasharray="0.43 0.43"/>
<path d="M18.7531 260.988L150.417 286.817" stroke="#A5ADBA" stroke-width="0.426199" stroke-miterlimit="10" stroke-linecap="round" stroke-dasharray="0.43 0.43"/>
<path d="M50.0801 159.747L165.861 234.064" stroke="#A5ADBA" stroke-width="0.426199" stroke-miterlimit="10" stroke-linecap="round" stroke-dasharray="0.43 0.43"/>
<path d="M110.654 76.5361L196.641 190.448" stroke="#A5ADBA" stroke-width="0.426199" stroke-miterlimit="10" stroke-linecap="round" stroke-dasharray="0.43 0.43"/>
<path d="M193.246 21.4678L238.923 161.087" stroke="#A5ADBA" stroke-width="0.426199" stroke-miterlimit="10" stroke-linecap="round" stroke-dasharray="0.43 0.43"/>
<g clip-path="url(#clip0_1_468)">
<path d="M477.576 273.972L527.813 222.109L601.009 240.287L550.479 292.135L477.576 273.972Z" fill="#C5E9DA" stroke="#36B37E" stroke-width="0.976579" stroke-miterlimit="10" stroke-linejoin="round"/>
<path d="M550.48 292.136L601.01 240.288L616.618 311.568L569.617 362.26L550.48 292.136Z" fill="white" stroke="#36B37E" stroke-width="0.976579" stroke-miterlimit="10" stroke-linejoin="round"/>
<path d="M550.479 292.138L519.706 319.18L569.616 362.262L550.479 292.138Z" fill="white" stroke="#36B37E" stroke-width="0.976579" stroke-miterlimit="10" stroke-linejoin="round"/>
<path d="M519.706 319.179L477.577 273.974L550.48 292.136L519.706 319.179Z" fill="white" stroke="#36B37E" stroke-width="0.976579" stroke-miterlimit="10" stroke-linejoin="round"/>
<path d="M569.617 362.261L496.275 342.488L519.706 319.179L569.617 362.261Z" fill="#C5E9DA" stroke="#36B37E" stroke-width="0.976579" stroke-miterlimit="10" stroke-linejoin="round"/>
<path d="M477.577 273.974L496.274 342.488L519.706 319.179L477.577 273.974Z" fill="white" stroke="#36B37E" stroke-width="0.976579" stroke-miterlimit="10" stroke-linejoin="round"/>
<path d="M535.048 305.669L544.366 297.552L535.048 305.669Z" fill="#644DF2"/>
<path d="M542.339 290.128L544.365 297.552L550.48 292.135L542.339 290.128Z" fill="#36B37E"/>
<path d="M542.34 290.129L591.943 238.054L579.37 234.949L529.971 287.065L542.34 290.129Z" fill="#36B37E"/>
<path d="M520.677 284.701L570.279 232.626L557.707 229.522L508.308 281.637L520.677 284.701Z" fill="#36B37E"/>
<path d="M520.676 284.699L528.194 312.248L535.048 305.668L529.971 287.064L520.676 284.699Z" fill="#36B37E"/>
<path d="M508.307 281.637L518.071 317.415L496.592 294.349L492.003 277.533L508.307 281.637Z" fill="#36B37E"/>
<path d="M492.003 277.533L499.605 270.173L484.837 266.418L477.577 273.974L492.003 277.533Z" fill="#172B4D"/>
<path d="M515.259 274.357L522.34 266.851L506.239 262.788L498.954 270.254L515.259 274.357Z" fill="#172B4D"/>
<path d="M506.239 262.788L513.841 255.428L499.073 251.673L491.789 259.139L506.239 262.788Z" fill="#172B4D"/>
<path d="M517.747 321.156L519.706 319.179L503.764 344.577L496.275 342.488L517.747 321.156Z" fill="#172B4D"/>
<path d="M605.917 262.495L596.64 272.523L600.399 288.411L609.432 278.546L605.917 262.495Z" fill="#36B37E"/>
<path d="M599.611 285.167L602.207 297.145L593.174 307.01L590.375 294.992L560.049 327.198C560.049 327.198 568.348 357.609 569.617 362.26C570.887 366.911 616.643 311.657 616.643 311.657L608.717 275.57L599.611 285.167Z" fill="#172B4D"/>
</g>
<g opacity="0.88">
<g clip-path="url(#clip1_1_468)">
<path d="M168.651 504.991L151.246 532.596L117.181 531.352L134.718 503.726L168.651 504.991Z" fill="#C5E9DA" stroke="#36B37E" stroke-width="0.474153" stroke-miterlimit="10" stroke-linejoin="round"/>
<path d="M134.717 503.725L117.18 531.351L103.658 501.271L119.741 474.484L134.717 503.725Z" fill="white" stroke="#36B37E" stroke-width="0.474153" stroke-miterlimit="10" stroke-linejoin="round"/>
<path d="M134.717 503.726L145.818 488.907L119.741 474.485L134.717 503.726Z" fill="white" stroke="#36B37E" stroke-width="0.474153" stroke-miterlimit="10" stroke-linejoin="round"/>
<path d="M145.818 488.906L168.651 504.99L134.717 503.726L145.818 488.906Z" fill="white" stroke="#36B37E" stroke-width="0.474153" stroke-miterlimit="10" stroke-linejoin="round"/>
<path d="M119.741 474.484L154.018 476.42L145.818 488.906L119.741 474.484Z" fill="#C5E9DA" stroke="#36B37E" stroke-width="0.474153" stroke-miterlimit="10" stroke-linejoin="round"/>
<path d="M168.651 504.99L154.019 476.42L145.818 488.906L168.651 504.99Z" fill="white" stroke="#36B37E" stroke-width="0.474153" stroke-miterlimit="10" stroke-linejoin="round"/>
<path d="M140.286 496.305L136.918 500.761L140.286 496.305Z" fill="#644DF2"/>
<path d="M138.504 503.857L136.918 500.762L134.717 503.725L138.504 503.857Z" fill="#36B37E"/>
<path d="M138.504 503.857L121.398 531.497L127.247 531.703L144.259 504.064L138.504 503.857Z" fill="#36B37E"/>
<path d="M148.59 504.248L131.485 531.888L137.334 532.094L154.346 504.455L148.59 504.248Z" fill="#36B37E"/>
<path d="M148.59 504.248L142.707 492.76L140.286 496.307L144.259 504.065L148.59 504.248Z" fill="#36B37E"/>
<path d="M154.346 504.454L146.705 489.535L158.348 497.743L161.939 504.755L154.346 504.454Z" fill="#36B37E"/>
<path d="M161.939 504.755L159.26 508.717L166.141 509.006L168.651 504.99L161.939 504.755Z" fill="#172B4D"/>
<path d="M151.947 508.32L149.512 512.298L157.011 512.6L159.54 508.621L151.947 508.32Z" fill="#172B4D"/>
<path d="M157.011 512.599L154.332 516.56L161.213 516.85L163.742 512.871L157.011 512.599Z" fill="#172B4D"/>
<path d="M146.501 487.85L145.818 488.906L150.511 476.192L154.018 476.42L146.501 487.85Z" fill="#172B4D"/>
<path d="M112.948 521.985L116.12 516.688L112.982 510.009L109.902 515.211L112.948 521.985Z" fill="#36B37E"/>
<path d="M113.632 511.37L111.372 506.313L114.451 501.11L116.806 506.166L127.229 489.105C127.229 489.105 120.734 476.424 119.741 474.484C118.748 472.545 103.639 501.234 103.639 501.234L110.496 516.46L113.632 511.37Z" fill="#172B4D"/>
</g>
</g>
<g opacity="0.32">
<g clip-path="url(#clip2_1_468)">
<path d="M161.642 135.369L169.422 145.28L164.55 157.505L156.78 147.544L161.642 135.369Z" fill="#C5E9DA" stroke="#36B37E" stroke-width="0.474153" stroke-miterlimit="10" stroke-linejoin="round"/>
<path d="M156.78 147.542L164.55 157.503L151.858 158.518L144.204 149.194L156.78 147.542Z" fill="white" stroke="#36B37E" stroke-width="0.474153" stroke-miterlimit="10" stroke-linejoin="round"/>
<path d="M156.78 147.543L152.831 141.584L144.204 149.195L156.78 147.543Z" fill="white" stroke="#36B37E" stroke-width="0.474153" stroke-miterlimit="10" stroke-linejoin="round"/>
<path d="M152.831 141.584L161.641 135.368L156.779 147.543L152.831 141.584Z" fill="white" stroke="#36B37E" stroke-width="0.474153" stroke-miterlimit="10" stroke-linejoin="round"/>
<path d="M144.203 149.195L149.354 136.982L152.831 141.584L144.203 149.195Z" fill="#C5E9DA" stroke="#36B37E" stroke-width="0.474153" stroke-miterlimit="10" stroke-linejoin="round"/>
<path d="M161.641 135.368L149.354 136.982L152.831 141.584L161.641 135.368Z" fill="white" stroke="#36B37E" stroke-width="0.474153" stroke-miterlimit="10" stroke-linejoin="round"/>
<path d="M154.804 144.556L155.987 146.358L154.804 144.556Z" fill="#644DF2"/>
<path d="M157.318 146.184L155.987 146.358L156.779 147.544L157.318 146.184Z" fill="#36B37E"/>
<path d="M157.318 146.185L165.15 155.991L165.984 153.89L158.14 144.119L157.318 146.185Z" fill="#36B37E"/>
<path d="M158.769 142.566L166.6 152.373L167.434 150.272L159.591 140.5L158.769 142.566Z" fill="#36B37E"/>
<path d="M158.769 142.566L153.829 143.215L154.804 144.556L158.141 144.118L158.769 142.566Z" fill="#36B37E"/>
<path d="M159.591 140.5L153.174 141.343L157.67 138.174L160.685 137.778L159.591 140.5Z" fill="#36B37E"/>
<path d="M160.686 137.778L161.778 139.267L162.776 136.802L161.642 135.368L160.686 137.778Z" fill="#172B4D"/>
<path d="M160.685 141.874L161.816 143.276L162.898 140.588L161.78 139.152L160.685 141.874Z" fill="#172B4D"/>
<path d="M162.898 140.588L163.991 142.076L164.989 139.612L163.87 138.176L162.898 140.588Z" fill="#172B4D"/>
<path d="M152.535 141.199L152.831 141.584L148.816 138.228L149.354 136.982L152.535 141.199Z" fill="#172B4D"/>
<path d="M160.594 157.828L159.079 155.987L156.244 156.262L157.736 158.057L160.594 157.828Z" fill="#36B37E"/>
<path d="M156.824 156.202L154.691 156.368L153.199 154.573L155.343 154.373L150.491 148.369C150.491 148.369 145.038 149.086 144.203 149.195C143.369 149.305 151.841 158.521 151.841 158.521L158.268 158.003L156.824 156.202Z" fill="#172B4D"/>
</g>
</g>
<g clip-path="url(#clip3_1_468)">
<path d="M12.9107 321.566L76.2845 282.239C76.2845 282.239 25.4572 362.542 24.6049 362.196C24.6049 362.196 16.7016 332.44 12.9107 321.566Z" fill="white" stroke="#36B37E" stroke-width="0.613298" stroke-miterlimit="10" stroke-linejoin="round"/>
<path d="M76.285 282.239L78.1955 284.869C78.1955 284.869 80.2552 367.79 80.1255 368.598C79.9959 369.406 81.2673 370.187 79.2715 370.701C77.2757 371.214 41.9319 365.66 33.2402 363.916C24.6053 362.195 24.6053 362.195 24.6053 362.195L76.285 282.239Z" fill="#36B37E"/>
<path d="M36.9675 316.775L52.4828 358.428L79.0391 344.061L77.9755 300.402L36.9675 316.775Z" fill="#C5E9DA"/>
<mask id="mask0_1_468" style="mask-type: alpha;" maskUnits="userSpaceOnUse" x="37" y="300" width="43" height="59">
<path d="M37.172 317.075L52.6873 358.727L79.2436 344.361L78.18 300.702L37.172 317.075Z" fill="#C5E9DA"/>
</mask>
<g mask="url(#mask0_1_468)">
<path d="M75.2348 342.379L68.1359 340.951L67.9725 350.152L60.3373 348.904L59.8508 358.901L67.7719 359.934L75.3058 360.943L82.4527 361.927L82.1615 352.541L75.2206 351.376L75.2348 342.379Z" fill="#36B37E"/>
<path d="M60.707 339.522L68.1362 340.951L68.2854 332.274L61.142 330.629L60.707 339.522Z" fill="#36B37E"/>
<path d="M52.937 337.954L52.2818 347.552L60.3378 348.905L60.7071 339.522L52.937 337.954Z" fill="#36B37E"/>
<path d="M52.9367 337.955L53.5546 328.938L45.6034 327.164L44.7227 336.339L52.9367 337.955Z" fill="#36B37E"/>
<path d="M44.7229 336.339L36.1449 334.642L34.8611 344.645L33.4938 355.344L42.7804 356.601L51.5661 357.787L52.2817 347.552L43.7818 346.151L44.7229 336.339Z" fill="#36B37E"/>
<path d="M94.6215 346.152L94.0497 338.108L88.0552 336.732L81.7535 335.297L81.5458 327.335L75.1766 325.741L68.5003 324.088L68.2854 332.275L75.2015 333.827L75.2352 342.38L81.9932 343.669L82.1619 352.542L88.7956 353.648L88.421 344.957L94.6215 346.152Z" fill="#36B37E"/>
<path d="M87.3628 321.489L81.347 319.839L81.5459 327.334L87.7215 328.916L87.3628 321.489Z" fill="#36B37E"/>
<path d="M61.4828 322.295L68.5001 324.086L68.6333 316.263L61.8557 314.37L54.7142 312.395L54.1584 320.444L53.5547 328.937L61.1419 330.629L61.4828 322.295Z" fill="#36B37E"/>
<path d="M46.47 318.514L38.4406 316.444L37.3113 325.253L45.6035 327.165L46.47 318.514Z" fill="#36B37E"/>
<path d="M28.5186 323.268L27.0093 332.849L36.1449 334.641L37.3115 325.251L28.5186 323.268Z" fill="#36B37E"/>
</g>
<path d="M36.9673 316.776L59.8853 307.617L43.3666 333.939L36.9673 316.776Z" fill="#172B4D"/>
<path d="M24.4525 314.339L19.4895 343.502" stroke="#36B37E" stroke-width="0.613298" stroke-miterlimit="10" stroke-linejoin="round"/>
<path d="M23.4179 320.473L21.4363 316.225L24.4531 314.34L23.4179 320.473Z" fill="#172B4D"/>
<path d="M64.2409 289.726L70.3703 291.422" stroke="#36B37E" stroke-width="0.613298" stroke-miterlimit="10" stroke-linejoin="round"/>
<path d="M41.3506 329.61L56.4629 367.856" stroke="white" stroke-width="0.613298" stroke-miterlimit="10" stroke-linejoin="round"/>
</g>
<g clip-path="url(#clip4_1_468)">
<path d="M513.785 90.0687L467.387 83.9134L448.013 65.1189L450.585 17.65L456.886 8.56905L470.943 10.5348L516.276 59.3816L513.785 90.0687Z" fill="#C5E9DA" stroke="#36B37E" stroke-width="0.646395" stroke-miterlimit="10" stroke-linejoin="round"/>
<path d="M483.09 85.9982L482.018 72.3507C482.018 72.3507 477.331 85.2273 475.381 84.9758C473.378 84.6874 483.09 85.9982 483.09 85.9982Z" fill="#36B37E"/>
<path d="M494.18 87.4775L504.813 47.0983" stroke="#36B37E" stroke-width="0.646395" stroke-miterlimit="10"/>
<path d="M502.133 57.1982L501.335 43.269" stroke="#36B37E" stroke-width="0.646395" stroke-miterlimit="10"/>
<mask id="path-102-inside-1_1_468" fill="white">
<path d="M469.091 49.5397L474.492 45.4985L469.544 39.7041L450.074 27.0582L449.698 33.7215L469.091 49.5397Z"/>
</mask>
<path d="M469.091 49.5397L474.492 45.4985L469.544 39.7041L450.074 27.0582L449.698 33.7215L469.091 49.5397Z" fill="white" stroke="#36B37E" stroke-width="1.29279" mask="url(#path-102-inside-1_1_468)"/>
<path d="M481.83 78.916L481.972 57.8499" stroke="#36B37E" stroke-width="0.646395" stroke-miterlimit="10"/>
<path d="M449.832 31.3746L450.016 31.1091L455.662 34.0834L464.949 42.8097L469.544 39.7037L470.966 10.5567L456.909 8.59099L450.607 17.672L449.832 31.3746Z" fill="#172B4D"/>
<path d="M455.331 34.5606L449.844 31.6969L448.036 65.1401L467.41 83.9346L469.091 49.5386L466.655 45.5663L455.331 34.5606Z" fill="#172B4D"/>
</g>
<g opacity="0.48" clip-path="url(#clip5_1_468)">
<path d="M270.568 479.859L284.387 488.288C284.387 488.288 286.433 489.9 284.509 493.372C282.585 496.843 280.254 496.001 280.254 496.001L265.902 487.741C265.902 487.741 264.201 486.175 265.907 482.963C267.88 479.228 270.568 479.859 270.568 479.859Z" fill="#C5E9DA" stroke="#36B37E" stroke-width="0.121852" stroke-miterlimit="10"/>
<path d="M270.567 479.859C270.567 479.859 272.526 481.06 270.436 485.013C268.473 488.716 265.902 487.742 265.902 487.742C265.902 487.742 264.25 486.037 265.907 482.964C267.564 479.891 269.552 479.836 270.567 479.859Z" fill="#36B37E"/>
<path d="M283.29 487.614C283.29 487.614 282.012 489.56 278.648 490.904C275.08 492.332 273.047 491.854 273.047 491.854L275.93 493.519C275.93 493.519 277.443 493.838 281.173 492.098C284.218 490.679 285.087 489.28 285.087 489.28L284.37 488.284L283.29 487.614Z" fill="#172B4D"/>
<path d="M278.391 484.67C278.391 484.67 277.153 486.412 273.494 487.599C269.834 488.786 267.322 488.573 267.322 488.573L270.205 490.238C270.205 490.238 272.54 490.534 275.838 489.171C278.895 487.9 280.64 486.045 280.64 486.045L278.872 484.961L278.391 484.67Z" fill="#36B37E"/>
<path d="M270.437 485.014C270.437 485.014 274.272 485.303 276.526 483.487L274.053 481.985C274.053 481.985 272.925 482.413 271.383 482.166C271.383 482.166 270.976 483.95 270.437 485.014Z" fill="#172B4D"/>
<path d="M268.972 483.498L268.485 484.129L268.648 487.018C268.648 487.018 269.767 486.247 270.436 485.014L269.843 483.588L268.972 483.498Z" fill="white" stroke="#36B37E" stroke-width="0.121852" stroke-miterlimit="10"/>
<path d="M271.166 480.742C271.166 480.742 271.001 480.04 270.562 479.85L268.241 483.208C268.241 483.208 269.048 483.485 269.249 483.597C269.456 483.719 269.835 483.927 269.835 483.927L271.259 483.001C271.265 483.012 271.753 481.879 271.166 480.742Z" fill="white" stroke="#36B37E" stroke-width="0.121852" stroke-miterlimit="10"/>
<path d="M284.895 492.56C284.895 492.56 282.823 494.026 280.295 494.49C277.946 494.925 277.729 494.558 277.729 494.558L280.254 496.002C280.254 496.002 281.332 496.367 282.683 495.537C284.034 494.707 284.895 492.56 284.895 492.56Z" fill="#36B37E"/>
<path d="M269.255 483.606C269.255 483.606 269.074 482.522 268.857 482.155C268.64 481.787 268.591 481.675 268.591 481.675L268.078 482.585L268.246 483.216L269.255 483.606Z" fill="white" stroke="#36B37E" stroke-width="0.121852" stroke-miterlimit="10"/>
<path d="M268.475 484.135L267.759 483.973L265.193 486.031C265.193 486.031 265.127 486.291 265.496 487.159L265.724 487.52L268.762 484.63C268.752 484.636 268.838 484.212 268.475 484.135Z" fill="white" stroke="#36B37E" stroke-width="0.121852" stroke-miterlimit="10"/>
<path d="M268.475 484.135C268.475 484.135 267.524 485.816 267.561 485.782C267.598 485.748 269.022 484.849 269.022 484.849C269.022 484.849 268.971 484.126 268.475 484.135Z" fill="white" stroke="#36B37E" stroke-width="0.121852" stroke-miterlimit="10"/>
</g>
<g clip-path="url(#clip6_1_468)">
<path d="M460.278 631.563L479.658 598.41C479.658 598.41 483.39 593.485 491.711 597.894C500.031 602.303 498.138 607.869 498.138 607.869L479.183 642.279C479.183 642.279 475.544 646.383 467.85 642.48C458.901 637.966 460.278 631.563 460.278 631.563Z" fill="#C5E9DA" stroke="#36B37E" stroke-width="0.289082" stroke-miterlimit="10"/>
<path d="M460.279 631.563C460.279 631.563 463.04 626.865 472.51 631.645C481.379 636.138 479.183 642.279 479.183 642.279C479.183 642.279 475.214 646.273 467.85 642.48C460.486 638.687 460.268 633.973 460.279 631.563Z" fill="#36B37E"/>
<path d="M478.107 601.041C478.107 601.041 482.777 603.986 486.115 611.906C489.663 620.306 488.619 625.148 488.619 625.148L492.44 618.235C492.44 618.235 493.13 614.632 488.835 605.863C485.336 598.704 481.978 596.703 481.978 596.703L479.648 598.449L478.107 601.041Z" fill="#172B4D"/>
<path d="M471.339 612.794C471.339 612.794 475.526 615.651 478.504 624.279C481.483 632.907 481.09 638.875 481.09 638.875L484.91 631.963C484.91 631.963 485.509 626.41 482.129 618.648C478.978 611.454 474.499 607.398 474.499 607.398L472.008 611.64L471.339 612.794Z" fill="#36B37E"/>
<path d="M472.509 631.646C472.509 631.646 473.025 622.536 468.616 617.27L465.164 623.202C465.164 623.202 466.23 625.858 465.712 629.528C465.712 629.528 469.962 630.413 472.509 631.646Z" fill="#172B4D"/>
<path d="M468.979 635.186L470.497 636.312L477.343 635.798C477.343 635.798 475.464 633.178 472.509 631.646L469.153 633.116L468.979 635.186Z" fill="white" stroke="#36B37E" stroke-width="0.289082" stroke-miterlimit="10"/>
<path d="M462.341 630.105C462.341 630.105 460.683 630.528 460.253 631.577L468.32 636.934C468.32 636.934 468.942 635.006 469.198 634.524C469.48 634.028 469.956 633.119 469.956 633.119L467.696 629.783C467.721 629.769 465.013 628.662 462.341 630.105Z" fill="white" stroke="#36B37E" stroke-width="0.289082" stroke-miterlimit="10"/>
<path d="M489.767 597.014C489.767 597.014 493.335 601.864 494.549 607.839C495.685 613.392 494.823 613.923 494.823 613.923L498.138 607.87C498.138 607.87 498.955 605.295 496.926 602.127C494.896 598.959 489.767 597.014 489.767 597.014Z" fill="#36B37E"/>
<path d="M469.223 634.511C469.223 634.511 466.662 634.988 465.8 635.519C464.938 636.05 464.674 636.17 464.674 636.17L466.855 637.347L468.345 636.921L469.223 634.511Z" fill="white" stroke="#36B37E" stroke-width="0.289082" stroke-miterlimit="10"/>
<path d="M470.511 636.337L470.16 638.042L475.157 644.036C475.157 644.036 475.774 644.18 477.818 643.268L478.665 642.712L471.674 635.633C471.688 635.658 470.68 635.472 470.511 636.337Z" fill="white" stroke="#36B37E" stroke-width="0.289082" stroke-miterlimit="10"/>
<path d="M470.512 636.337C470.512 636.337 474.541 638.517 474.458 638.431C474.375 638.345 472.18 635.006 472.18 635.006C472.18 635.006 470.467 635.161 470.512 636.337Z" fill="white" stroke="#36B37E" stroke-width="0.289082" stroke-miterlimit="10"/>
</g>
<defs>
<clipPath id="clip0_1_468">
<rect width="128.874" height="147.139" fill="white" transform="translate(467.316 238.14) rotate(-15.2643)"/>
</clipPath>
<clipPath id="clip1_1_468">
<rect width="58.2472" height="66.5024" fill="white" transform="translate(176.516 519.888) rotate(152.88)"/>
</clipPath>
<clipPath id="clip2_1_468">
<rect width="22.4882" height="25.6754" fill="white" transform="translate(168.079 134.441) rotate(82.5164)"/>
</clipPath>
<clipPath id="clip3_1_468">
<rect width="92.4853" height="94.1412" fill="white" transform="translate(35.4327 265.312) rotate(22.1095)"/>
</clipPath>
<clipPath id="clip4_1_468">
<rect width="93.8566" height="62.9589" fill="white" transform="translate(501.69 108.119) rotate(-145.241)"/>
</clipPath>
<clipPath id="clip5_1_468">
<rect width="20.4102" height="16.2672" fill="white" transform="translate(277.395 475.21) rotate(61.0741)"/>
</clipPath>
<clipPath id="clip6_1_468">
<rect width="48.4212" height="38.5925" fill="white" transform="translate(448.945 615.574) rotate(-30)"/>
</clipPath>
</defs>
</svg>
